<?xml version="1.0" encoding="utf-8"?>
<!-- Generator: Adobe Illustrator 16.0.0, SVG Export Plug-In . SVG Version: 6.00 Build 0)  -->
<!DOCTYPE svg PUBLIC "-//W3C//DTD SVG 1.1//EN" "http://www.w3.org/Graphics/SVG/1.1/DTD/svg11.dtd">
<svg version="1.1" id="Layer_1" xmlns="http://www.w3.org/2000/svg" xmlns:xlink="http://www.w3.org/1999/xlink" x="0px" y="0px"
	 width="240px" height="185px" viewBox="0 0 240 185" enable-background="new 0 0 240 185" xml:space="preserve">
<g>
	<g>
		<path fill="#444445" d="M107.609,56.48c2.767,9.349,6.666,19.05,9.808,29.666c5.765,19.491,3.835,43.84-16.922,49.981
			c-8.872,2.625-17.913-0.561-21.663-13.236c-4.5-15.211,2.234-37.882,10.475-40.318c0.79-0.235,1.63-0.311,2.517-0.228l0,0
			c0.549,0.071,1.02,0.33,1.549,0.574l0,0c2.621,1.293,4.538,4.862,5.708,8.824c1.688,5.705,2.073,12.828,1.045,16.922
			c6.491-4.851,7.736-12.283,5.908-18.463c-1.639-5.546-5.925-10.137-11.036-10.521c0,0-0.963-0.189-1.929-0.12
			c-0.359,0.029-1.315,0.219-1.948,0.406c-10.618,3.14-20.502,26.225-15.207,44.129c4.594,15.527,16.057,18.168,27.309,14.84
			c23.606-6.982,36.08-32.385,29.238-55.518c-4.874-16.479-17.709-24.917-21.506-37.75c-4.265-14.419,6.134-26.456,15.165-29.127
			c5.072-1.5,9.621-0.089,11.216,5.298c-0.493,0.663-0.985,1.326-1.526,1.831c-4.803,5.9-5.241,12.578-4.068,16.539
			c0.703,2.376,1.917,3.569,3.185,3.194c6.021-1.782,6.79-12.004,5.173-19.796c4.962-5.947,11.26-14.359,16.404-17.948
			c0.222-0.409,0.286-0.773,0.238-0.932c-0.047-0.158-0.252-0.27-0.566-0.177c-0.317,0.094-1.221,0.534-1.221,0.534
			c-4.476,2.357-10.862,8.727-15.981,14.72c-2.457-5.993-7.741-7.531-13.444-5.844c-11.406,3.375-24.194,19.563-18.623,40.144
			L107.609,56.48z"/>
	</g>
	<path fill="#444445" d="M176.528,64.119c-6.562,2.032-13.296,5.508-19.484,8.739c-7.014,13.305-14.009,27.92-17.778,40.22
		c-1.253,3.945-3.128,15.117-1.184,21.396c0.349,1.129,0.891,2.122,1.504,2.86c-2.539,0.785-4.923-4.661-5.425-6.285
		c-4.15-13.405,4.205-34.857,14.57-54.071c-1.979,0.845-3.912,1.597-5.676,2.144c-5.927,1.835-8.67,1.215-9.217-0.548
		c-0.961-3.104,4.838-9.847,11.918-13.2c-4.705,4.782-6.052,7.672-5.549,9.295c0.59,1.905,3.837,1.905,7.364,0.812
		c0.776-0.24,1.552-0.48,2.377-0.813c8.676-15.675,18.345-29.648,23.13-35.923c0.096-0.184,0.307-0.25,0.521-0.315
		c0.563-0.175,1.307-0.019,1.46,0.475l0.044,0.142c-3.203,6.636-10.143,18.682-17.232,32.242c9.7-4.628,20.794-11,29.12-13.578
		c6.066-1.878,10.666-1.756,12.021,2.618c0.414,1.34,0.283,3.16-0.539,5.502C191.889,61.295,184.288,61.716,176.528,64.119z"/>
	<path fill="#444445" d="M118.868,143.106c-1.741,7.111-1.968,14.372,0.13,21.146c3.123,10.088,12.671,16.951,22.901,13.783
		c23.353-7.23,23.544-55.303,34.958-86.362c-8.22,10.663-15.449,24.267-23.838,40.626c-0.388,0.739-0.845,1.267-1.269,1.399
		c-0.634,0.195-1.275-0.379-1.865-2.284c-4.413-14.251,2.989-32.548,9.784-43.312c1.11-1.658,5.573-8.221,6.419-8.482
		c0.637-0.197,1.32,0.519,1.495,1.083c-5.031,10.218-18.649,43.893-16.531,50.736c0.108,0.353,0.246,0.543,0.527,0.456
		c0.283-0.088,0.738-0.615,1.398-1.98c3.588-7.142,15.665-31.061,25.214-41.672c2.682-6.32,5.859-11.788,9.942-15.835
		c0.833-0.8,1.332-1.186,1.615-1.274c0.281-0.087,0.489,0.081,0.604,0.201l0.092,0.048c0.092,0.049,0.114,0.12,0.158,0.261
		c0.437,1.411-8.518,13.694-8.88,14.269c-10.574,26.778-2.75,82.267-40.071,93.823c-10.653,3.298-20.827-4.84-23.71-14.152
		c-2.229-7.197-2.15-15.185-0.209-22.898L118.868,143.106z"/>
	<path fill="#444445" d="M199.965,130.831c-0.814,0.87-1.714,1.458-2.632,1.741c-5.573,1.727-8.703-2.64-10.233-7.577
		c-7.755-25.046,15.515-64.261,35.03-79.891c1.545-1.252,2.657-1.905,3.503-2.168c0.987-0.305,1.544-0.013,1.739,0.622
		c0.306,0.988-0.251,2.938-1.327,5.204c-8.218,17.158-24.365,39.167-35.388,54.255c-1.861,7.227-2.334,13.943-0.738,19.094
		C191.229,126.346,194.306,131.037,199.965,130.831z M224.677,45.089c-10.893,10.021-27.166,34.622-33.287,55.306
		c12.794-18.111,35.58-51.145,34.292-55.307C225.507,44.522,224.844,44.882,224.677,45.089z"/>
	<path fill="#444445" d="M206.944,125.378c2.398-0.742,8.71-11.82,12.865-20.374c2.418-4.924,4.432-9.414,5.335-11.24l0.554,0.293
		c0,0-4.349,9.93-5.338,12.477c-1.183,2.918-8.512,18.95-12.463,20.174c-3.457,1.07-6.846-4.375-7.348-5.998
		c-3.779-12.205,2.235-28.99,18.059-43.555c1.573-1.415,2.973-2.389,3.961-2.695c0.705-0.219,1.541-0.014,1.738,0.621
		c1.224,3.951-10.05,21.979-18.226,29.535c-2.062,6.823-2.758,13.069-1.577,16.879C204.876,122.693,206.168,125.619,206.944,125.378
		z M222.625,76.143c-0.21,0.065-0.401,0.201-0.521,0.315c-6.612,6.61-12.181,16.839-15.375,26.255
		c11.881-12.57,16.758-25.291,16.406-26.419C223.072,76.082,222.838,76.077,222.625,76.143z"/>
	<g>
		<path fill="#444445" d="M36.123,73.235c-0.328,0-1.805-0.891-1.969-1.172c-0.445-0.609-0.633-1.312-1.008-1.898
			c-0.047-0.141-0.445-0.609-0.445-0.656c-0.117-0.164-0.609-1.172-0.633-1.336c-0.094-0.047-0.305-0.375-0.375-0.492
			c-0.773-1.125-1.547-2.227-2.273-3.398c0-0.047-0.117-0.258-0.164-0.328c-0.398-1.008-0.938-1.828-1.453-2.766
			c0-0.07-0.281-0.609-0.328-0.68c-0.047,0-0.492-0.328-0.656-0.445c-0.117-0.094-0.844-0.609-0.961-0.656
			c-0.047-0.047-0.445-0.445-0.492-0.516c-0.117-0.047-0.773-0.422-0.961-0.492c-0.047,0-0.609-0.117-0.656-0.164
			c-0.094,0-0.562-0.281-0.703-0.281h-0.023c-0.375,0-1.266,1.547-1.266,1.852c0,0.586,0.211,1.055,0.211,1.641
			c0,0.562-0.211,1.008-0.211,1.5c0,0.562,0.281,1.125,0.375,1.617c0,0.117,0,1.125,0,1.5c0,0.398,0,1.406,0,1.453
			c0,0.094-0.164,0.609-0.164,0.656v0.164c0,2.672,4.242,2.578,4.242,4.008c0,0.727-1.242,1.055-1.805,1.055
			c-0.422,0-2.25-0.047-2.602-0.117l-5.555-0.047c-0.258,0.164-0.656,0.164-1.008,0.164c-0.258,0-0.492,0-0.609,0
			c-0.164,0-0.984,0-1.148,0c-0.188-0.047-0.656-0.328-0.656-0.562c0-0.445,0.773-1.055,1.102-1.055h2.648
			c0.117,0,0.469-0.539,0.469-0.656c0-0.047,0-0.211,0-0.445c0-0.445,0-1.102,0-1.172c0.047-0.211,0.211-1.617,0.211-1.828
			c0-0.117-0.047-0.68-0.047-1.125c0-0.211,0-0.422,0.047-0.492c0-0.094,0.094-0.281,0.117-5.039
			c0.375-0.562,0.375-0.938,0.375-1.523c0-0.211-0.047-0.703-0.047-0.75c0-0.07-0.164-0.305-0.164-0.352v-0.047
			c0-0.82,0.211-1.711,0.211-2.508c0-0.609-0.211-0.82-0.211-1.266c0,0,0-0.047,0-0.07c0-0.094,0.164-0.562,0.164-0.609
			c0.047-0.281,0.164-1.172,0.211-1.336c0-0.117,0-0.891,0-1.43c0-0.281,0-0.492,0-0.562c0-0.281,0.398-2.766,0.445-3.094
			c0-0.07,0-1.172,0-1.242c0-0.117,0.164-0.938,0.164-1.008c0,0,0-0.141,0-0.164c0-0.047,0-0.164,0-0.164
			c0-0.047-0.258-0.422-0.328-0.492c-0.117-0.164-0.609-0.609-0.656-0.609c-0.047-0.047-0.68-0.164-0.797-0.211
			c-0.305-0.023-1.664-0.398-1.922-0.445c-0.609-0.164-1.336-0.68-1.336-1.336c0-0.492,0.773-0.797,1.172-0.797
			c0.375,0,0.609,0,0.984,0.164c1.125,0.07,2.273,0.188,3.328,0.188s2.062-0.117,3-0.188c0.281-0.164,0.445-0.164,0.68-0.164
			c0.398,0,0.609,0.352,1.008,0.352c1.594,0,3-0.516,4.547-0.516c0.117,0,0.727,0,0.891,0c0.375,0.328,1.172,0.188,1.477,0.328
			c0.117,0.023,0.469,0.398,0.516,0.469l2.602,0.82c0.023,0,0.844,0.82,1.078,1.125c0.047,0.047,0.328,0.445,0.375,0.492
			c0.398,0.539,1.219,0.773,1.453,1.148c0.445,0.844,0.609,1.688,0.984,2.625c0,0.047,0.281,0.562,0.281,0.656v0.023
			c0,0.094,0,0.141,0,0.141c0,0.07-0.281,0.68-0.281,0.797c0,0.047,0,0.258,0,0.492c0,0.492,0,1.172,0,1.289
			c0,0.094-0.328,0.609-0.375,0.656c0,0.07-0.07,0.773-0.164,0.82c-0.445,1.898-2.297,4.242-4.172,5.062
			c-0.07,0-0.609,0.07-0.68,0.164c-0.492,0.281-0.867,1.125-1.102,1.617c0,0,0.07,0.117,0.164,0.117
			c1.102,0.938,2.062,1.898,2.906,3.117c0,0.047,0.141,0.445,0.164,0.492c0,0.047,0.094,0.258,0.164,0.328
			c0.258,0.445,0.422,0.844,0.656,1.289c0.445,0.867,0.68,1.031,1.266,1.781c0.75,0.984,1.453,2.25,2.461,2.93
			c1.219,0.891,3.258,0.773,3.258,2.789c0,0.094,0,0.211,0,0.375s0,0.375-0.141,0.445c-0.07,0-0.516,0.117-0.68,0.164
			c-0.094,0-1.336,0.07-1.828,0.164h-0.047c-0.398,0-0.68-0.539-1.359-0.539C37.412,73.024,36.756,73.235,36.123,73.235z
			 M27.1,56.969c0.094,0,0.164,0,0.211,0c0.094,0,0.164,0,0.164,0c0.211-0.023,0.773-0.164,0.82-0.188
			c2.133-0.82,2.555-2.367,3.773-4.055c0.07-0.141,0.281-0.445,0.281-0.539c0.023-0.07,0.164-1.125,0.164-1.242
			c0.023-0.047,0.141-0.609,0.188-0.656c0,0,0-0.328,0-0.398c0-0.656,0-1.43-0.352-2.039c-0.445-0.773-0.656-1.547-1.102-2.273
			c-0.094-0.07-0.492-0.609-0.539-0.68c-0.023-0.094-0.562-0.867-0.633-0.938c0-0.094-0.117-0.164-0.164-0.164
			c-0.258-0.164-0.539-0.164-0.82-0.164s-0.562,0-0.797-0.211c-0.82-0.469-1.219-0.797-2.273-0.797c-0.047,0-0.328,0-0.328,0
			c-0.281,0-1.5,0.164-1.828,0.164c-0.07,0.07-0.68,0.68-0.82,0.797c0,0.047-0.07,0.375-0.117,0.492
			c0,0.117-0.164,0.562-0.164,0.703c-0.117,0.305-0.117,0.797-0.352,1.078c0,0.164,0,0.938,0,1.055c0,0.281,0,1.008,0,1.102
			c0.047,0.398,0.188,3.656,0.188,4.055c0,0.281-0.141,2.766-0.188,3.07c0,0.047,0,0.305,0,0.422c0,0.469,0.445,1.078,1.008,1.219
			C23.982,56.805,26.584,56.946,27.1,56.969z"/>
		<path fill="#444445" d="M47.816,72.743c-0.258-0.164-1.359-1.078-1.641-1.336c-0.398-0.352-1.664-1.617-1.734-1.781
			c-0.07,0-0.727-1.266-1.008-1.734c-0.328-0.609-0.984-1.922-0.984-2.531v-4.055c0.258-0.68,0.445-1.453,0.492-2.25
			c0.164-0.375,1.102-2.086,1.289-2.438c0.938-1.594,2.32-2.227,3.891-3.094c0.82-0.398,1.922-0.516,2.812-0.797
			c0.328-0.141,0.633-0.375,1.055-0.375c0.023,0,0.188,0,0.234,0.047c0.047,0,0.562,0.164,0.656,0.164c0.117,0,1.008,0,1.125,0
			c0.891,0.023,1.102,0.773,1.781,0.797c0.094,0,0.656,0,1.055,0c0.211,0,0.375,0,0.422,0c0.07,0,0.609,0.445,0.633,0.445
			c0.047,0.094,0.328,0.164,0.375,0.211c0.047,0,0.68,0.117,0.797,0.164c0.469,0.211,0.305,0.727,0.609,0.961
			c0.094,0.047,0.609,0.445,0.656,0.492c0.047,0,0.164,0.117,0.164,0.164c0.375,0.375,1.172,1.266,1.172,1.336
			c0.047,0.047,0.117,0.867,0.117,0.938c0.094,0.211,0.422,1.289,0.539,1.5v4.711c0,0.164-0.234,1.242-0.375,1.617
			c0,0.047-0.234,0.609-0.281,0.656c-0.188,0.516-0.188,1.172-0.516,1.617c0,0.023-0.281,0.328-0.281,0.328
			c-0.492,0.609-0.773,1.617-1.336,2.109c-0.586,0.562-1.43,0.844-1.922,1.336c-0.117,0.023-0.727,0.727-0.797,0.797
			c-0.164,0.047-1.195,0.422-1.5,0.492c-0.141,0-1.641,0.234-2.109,0.328c0,0-0.141,0-0.164,0c-0.047,0-0.164,0-0.164,0
			c-0.445,0-2.508-0.164-2.93-0.164C49.316,73.024,48.332,73.071,47.816,72.743z M48.332,67.891
			c0.445,0.727,0.398,1.453,1.266,1.898c0.117,0.047,0.773,0.328,0.797,0.375c0.609,0.398,0.82,1.078,1.594,1.078
			c1.852,0,3.328-1.852,4.453-3.07c0.211-0.773,0.562-1.102,0.82-1.781c0.352-0.891,0.352-1.641,0.352-2.555
			c0-3.164-1.172-6.867-3.609-9c-0.164,0-0.773-0.047-0.938-0.047c-1.453,0-2.906,0.398-3.75,1.664
			c-0.141,0.164-0.492,0.609-0.539,0.68c-0.047,0-0.445,0.258-0.445,0.281c-0.117,0.117-0.328,0.422-0.375,0.539
			c0,0.07-0.07,1.008-0.141,1.102c0,0.117-0.305,0.586-0.305,0.633c-0.188,0.398-0.234,0.891-0.352,1.336
			c-0.047,0.445-0.281,1.922-0.281,2.086c0,0.023,0,0.234,0,0.352C46.878,65.079,47.511,66.461,48.332,67.891z"/>
		<path fill="#444445" d="M63.708,61.797c0.023-0.07,0.281-0.398,0.281-0.516c0.117-0.258,0.773-2.203,0.797-2.438
			c0.492-1.219,1.102-2.227,1.992-3.094c0.422-0.352,1.617-1.523,1.781-1.617c0.375-0.234,0.82-0.234,1.195-0.516
			c0.023-0.047,0.68-0.539,0.797-0.656c0,0,0.234-0.07,0.281-0.164c0.375-0.117,1.148-0.445,1.172-0.445
			c4.312,0.047,4.383,0.094,4.477,0.117c0.281,0.094,0.562,0.094,0.891,0.211c0.07,0,0.562,0.281,0.609,0.281
			c0.281,0.117,0.773,0.164,1.008,0.375c1.219,1.055,2.438,2.062,2.438,3.844c0,1.008-1.5,2.18-2.484,2.18c-0.047,0-0.234,0-0.281,0
			c-0.117-0.07-1.125-0.609-1.5-0.797c-0.328-0.281-0.328-1.031-0.445-1.336c-0.375-1.266-1.055-2.648-2.625-2.648
			c-0.867,0-1.805,0.445-2.438,1.008c-0.164,0.164-1.617,1.359-1.781,1.477c-0.445,0.352-0.445,0.938-0.656,1.5
			c0,0.023-0.281,0.516-0.281,0.609c-0.492,1.125-0.539,2.344-0.539,3.562c0,0.164,0,0.375,0,0.516c0,0.164,0,0.82,0,0.984
			c0.445,0.68,0.445,1.711,0.82,2.438c0.773,1.406,1.617,1.852,2.789,2.742c0,0,0.094,0.164,0.164,0.164
			c0.047,0.047,0.281,0.164,0.281,0.164h4.102c0,0,0.375-0.117,0.492-0.164c0.609-0.234,1.219-0.281,1.734-0.469
			c0.586-0.164,1.383-0.82,1.992-0.82c0.047,0,0.164,0.07,0.164,0.117c0,0.094-0.117,0.375-0.164,0.539
			c-0.82,2.18-3.047,3.844-5.344,4.219c-0.117,0.023-1.172,0.117-1.336,0.188c-0.047,0-0.422,0.281-0.445,0.281
			c-0.047,0-0.445,0-0.656,0c-1.945,0-4.453-1.055-5.883-2.414c-0.07-0.047-0.82-1.055-1.125-1.477
			c-1.594-2.062-2.273-4.102-2.273-6.68C63.708,62.899,63.708,62.008,63.708,61.797z"/>
		<path fill="#444445" d="M95.069,73.024c-0.211,0-0.938-0.07-1.148-0.164c-0.281-0.188-0.328-0.352-0.328-0.633
			c0-0.047,0-0.117,0-0.211c0-0.352,0-0.773,0.164-1.055c0.258-0.562,0.82-0.797,0.82-1.453c0-1.102-0.609-2.344-1.266-3.117
			c-0.117-0.094-0.773-0.75-0.891-0.82c-0.398-0.492-0.844-1.289-1.617-1.289c-0.727,0-1.43,1.242-1.453,1.898
			c0,0.07,0,1.102,0,1.43c0,0.352,0,1.336,0,1.359c0.117,1.547,2.18,2.273,2.18,3.094c0,0.68-1.008,1.008-1.547,1.172
			c-0.281,0-1.734,0-2.062,0c-0.562,0-2.016,0-2.109,0c-0.609-0.047-3.352-0.164-3.938-0.211c-0.281-0.188-0.469-0.469-0.469-0.844
			s0.023-0.562,0.281-0.938c0.07-0.023,0.281-0.117,0.352-0.117c0.117-0.07,0.867-0.164,0.984-0.164
			c0.281-0.117,1.219-0.445,1.289-0.516c0.094-0.047,0.281-0.328,0.328-0.492c0.492-1.055,0.609-2.484,0.656-3.562
			c0-0.258,0.023-1.055,0.023-1.875s-0.023-1.57-0.023-1.875c0.164-0.234,0.188-0.516,0.188-0.797s-0.023-0.562-0.023-0.82
			c0-0.234,0.188-1.055,0.352-1.336v-3.891l0.281-0.961c0-0.609,0-1.195,0-1.805c0-1.945,0.047-3.914,0.164-5.836
			c0.047-0.117,0.164-0.914,0.211-1.008c0,0,0-0.117,0-0.164s0-0.164,0-0.164c-0.047-0.07-0.211-0.773-0.211-0.797
			c0-0.375,0-1.922,0-2.273c-0.117-0.164-0.328-0.328-0.445-0.375c-0.516-0.164-1.992-0.609-2.156-0.609c-0.023,0-0.117,0-0.234,0
			c-0.234,0-0.656,0-0.727,0c-0.117-0.023-0.609-0.164-0.656-0.188c-0.07-0.047-0.352-0.258-0.352-0.305l0.516-0.961
			c0.984,0.07,1.172-0.328,1.992-0.656c0.844-0.398,2.461-1.336,3.328-1.336c0.609,0,1.055,0.047,1.664,0.164
			c0.961,0.492,0.398,2.203,0.961,3.094v3.609c0,0.023-0.164,0.398-0.164,0.469c0,0.141,0,1.336,0,1.5
			c0,0.492-0.07,2.531-0.117,2.883c0,0.094-0.164,0.891-0.164,1.008c0,0,0,0.422,0,0.586c0,0.914,0.164,1.852,0.164,2.836
			c0,1.078-0.328,2.227-0.328,3.281c0,0.07,0,0.398,0,0.445c0,0.352,0.117,1.945,0.164,2.273c0.094,0.164,0.375,0.352,0.562,0.352
			c0.891,0,1.43-0.844,2.039-1.289c0.047-0.07,0.609-0.328,0.656-0.375c0.398-0.234,0.562-0.75,0.797-1.125
			c0.375-0.445,0.984-0.844,0.984-1.453c0-0.211-0.117-1.031-0.164-1.172c-0.211-0.656-1.336-0.422-1.336-1.312
			c0,0,0-0.117,0.07-0.164c0.047-0.023,0.328-0.398,0.445-0.445c0.281-0.164,1.664-0.609,1.992-0.633
			c0.07-0.047,0.328-0.047,0.656-0.047c0.633,0,1.57,0.047,1.781,0.047c0.445,0,0.844-0.375,1.289-0.375l0.164,0.047
			c0.047,0,0.398,0.164,0.445,0.164c0.375,0.023,1.992,0.164,2.273,0.164c0.164,0.023,0.492,0.305,0.516,0.469
			c0,0,0.047,0.422,0.047,0.586c0,0.07-0.047,0.445-0.047,0.562c-0.023,0.07-2.789,0.938-3.234,1.289
			c-0.047,0.047-0.609,0.445-0.656,0.445c-0.07,0.094-0.727,0.281-0.961,0.375c-0.117,0-0.609,0.117-0.656,0.164
			c-0.117,0.023-0.68,0.609-0.797,0.797c-0.094,0.047-0.328,0.445-0.375,0.492c-0.047,0.07-0.562,0.281-0.609,0.328
			c-0.117,0.07-0.938,0.773-1.172,0.961c-0.211,0.211-0.82,0.656-0.82,1.055c0,0.047,0,0.094,0,0.094
			c0.047,0.164,0.609,1.172,0.656,1.336c0,0.047,0.164,0.398,0.164,0.445c0.047,0.117,0.164,0.328,0.164,0.352
			c0.07,0.047,0.773,0.703,0.797,0.82c0.094,0.094,0.445,0.844,0.492,0.984c0.281,0.469,1.008,0.469,1.336,0.914
			c0,0.141,0.258,0.773,0.281,0.82c0.094,0.117,0.164,0.375,0.164,0.375c0.164,0.141,1.477,1.453,1.617,1.617
			c0.586,0.562,0.984,1.219,1.664,1.617c0.141,0.117,1.195,0.562,1.312,0.656c0.07,0.07,0.633,0.516,0.797,0.68
			c0.328,0.281,1.148,1.008,1.148,1.43c0,0.68-0.727,0.797-1.312,0.844c-0.398,0-2.227,0-2.578,0
			c-0.375,0.164-0.492,0.164-0.82,0.164c-0.352,0-0.492,0-0.797-0.164C98.093,73.352,95.585,73.071,95.069,73.024z"/>
		<path fill="#444445" d="M35.326,98.618c0-0.047,0.281-0.398,0.328-0.445c0.445-0.609,1.875-0.445,2.109-0.984
			c0.328-0.68,0.328-1.453,0.703-2.109v-5.743l0.445-0.82v-2.273c0,0-0.141-0.188-0.164-0.281c-0.047-0.07-0.281-0.492-0.281-0.516
			c-0.141-0.211-0.164-0.703-0.375-0.984c-0.211-0.211-1.148-1.102-1.336-1.289c-0.258-0.164-0.609-0.164-0.938-0.164
			c-0.211,0-0.398,0-0.562,0c-0.328,0-1.008,0-1.055,0c-0.094,0-0.492,0.164-0.539,0.164c-1.969,0.609-2.227,0.68-2.719,2.789
			c0,0.609,0,3.445,0,4.055c0,0.117-0.141,1.289-0.141,1.453v0.164c0,0.047,0,0.117,0,0.211c0,0.117,0.141,1.711,0.141,1.899
			c0,0.445-0.023,1.055-0.023,1.664c0,0.656,0.07,1.289,0.328,1.781c0.305,0.539,1.008,0.445,1.453,0.82
			c0.352,0.211,0.797,0.656,0.797,1.125c0,0.047,0,0.117,0,0.117c-0.023,0.141-0.305,0.422-0.445,0.539
			c-0.188,0.164-0.797,0.492-0.797,0.492h-5.719c-0.117,0-0.82-0.258-0.984-0.328c-0.445-0.281-0.633-0.703-0.633-1.148
			c0-0.844,1.008-1.172,1.453-1.969c0.047-0.047,0.164-0.422,0.164-0.445c0-0.094,0-0.773,0-0.867c0-0.117,0.281-0.844,0.352-0.961
			c0-0.047-0.023-0.562-0.023-0.938c0-0.164,0-0.281,0.023-0.328c0-0.727,0.305-1.336,0.305-1.993c0-0.281,0-0.469-0.164-0.797
			c0-0.562,0-3.211,0-3.727c-0.047-0.703-0.047-1.594-0.492-2.156c-0.938-1.102-1.875-1.617-3.375-1.617c-0.188,0-0.68,0-0.68,0
			c-0.164,0.023-1.055,0.516-1.336,0.633c-0.609,0.422-0.703,1.031-0.938,1.641c-0.07,0.117-0.492,0.891-0.516,0.961
			c-0.047,0.211-0.094,1.781-0.164,1.992c0,0.047-0.141,0.609-0.141,0.656c0,0,0,0.398,0,0.609c0,1.195,0.047,2.625,0.141,3.797
			c0.07,0.703,0,1.219,0.164,1.898c0,0.164,0.445,1.195,0.516,1.359c0,0,0.07,0.234,0.117,0.281c0.117,0.188,0.492,0.68,0.539,0.68
			c0.023,0.047,0.844,0.234,0.961,0.281c0.117,0.164,0.867,0.82,0.938,1.008c0,0.047,0.07,0.258,0.07,0.328
			c0,0.422-0.398,0.938-0.891,0.938l-2.906,0.117l-0.445,0.047h-3.445c-0.281,0.164-0.375,0.211-0.609,0.211
			c-0.094,0-0.211,0-0.211,0c-0.562-0.164-1.781-0.492-1.781-1.219c0-0.492,0.211-0.891,0.492-1.43
			c0.188-0.352,0.609-0.445,0.961-0.609c0.422-0.234,0.938-1.172,0.984-1.664c0.07-0.609,0.445-3.446,0.492-4.055
			c0-0.117,0-0.727,0-1.172c0-0.188,0-0.398,0-0.445s0.305-0.562,0.305-0.656c0,0,0-0.188,0-0.281c0-0.727-0.141-1.5-0.141-2.273
			c0-0.281,0.141-0.562,0.141-0.844c0-0.047,0-0.164,0-0.164c-0.023-0.164-0.234-0.844-0.305-1.008
			c-0.328-0.82-2.648-0.094-2.648-1.711c0-0.562,0.703-0.727,1.008-1.008c0.141-0.117,0.984-1.102,1.148-1.172
			c0.07-0.047,1.219-0.258,1.289-0.328c0.117-0.047,0.727-0.727,0.82-0.82c0.328-0.281,1.172-0.469,1.547-0.469
			c0.023,0,0.07,0,0.07,0c0.773,0.164,0.82,0.164,0.82,0.891c0,0.516-0.141,1.008-0.141,1.57c0,0.539,0.305,0.82,0.82,0.82
			c0.047,0,0.234,0,0.281-0.047c0.211-0.117,1.008-0.82,1.172-0.961c0.094-0.094,1.031-1.031,1.102-1.102
			c0.281-0.281,0.773-0.281,1.008-0.375c0.211-0.023,1.148-0.516,1.312-0.633h2.625c0.492,0,0.938,0.727,1.266,1.008
			c0.023,0.047,0.609,0.234,0.633,0.281c0.75,0.398,0.75,1.617,1.758,1.617c0.844,0,1.055-0.656,1.5-1.102
			c0.234-0.188,1.172-1.008,1.336-1.172c0.281-0.188,1.336-0.398,1.734-0.445c0.211-0.07,1.336-0.164,1.617-0.188
			c0.094,0,0.305,0,0.375,0c1.008,0,1.781,0.188,2.602,0.633c0.07,0.047,0.891,0.422,1.008,0.492
			c0.047,0.07,0.492,0.727,0.609,0.984c0.07,0.188,0.445,0.844,0.492,0.961c0.07,0.164,0.516,1.617,0.68,2.109
			c0.117,0.492,0.117,0.562,0.117,0.938c0,0.047,0,0.188,0,0.234c0,0.117-0.281,0.867-0.281,0.984c0,0.07,0,0.281,0,0.562
			c0,0.516,0,1.266,0,1.336c0,0.117-0.164,0.609-0.188,0.68c0,0.094,0,0.75,0,1.195c0,0.234,0,0.398,0,0.445
			c-0.047,1.289-0.445,2.508-0.445,3.844c0,0.82,0,1.734,0.445,2.508c0.633,0.938,2.625,0.82,2.625,2.203c0,0.07,0,0.234,0,0.234
			c-0.047,0.047-0.398,0.398-0.539,0.445c-0.188,0.164-0.891,0.539-0.914,0.539h-7.031c-0.797,0-1.969-0.656-1.969-1.641
			C35.139,98.97,35.303,98.735,35.326,98.618z"/>
		<path fill="#444445" d="M52.566,107.524c0.117,0,0.258,0,0.375,0c0.281,0,0.609,0,0.891,0.164
			c0.633,0.375,0.773,0.656,1.617,0.656c0.656,0,1.617-0.844,1.781-1.453c0.047-0.117,0.117-1.172,0.117-1.336
			c0.094-0.094,0.164-0.422,0.164-0.445c0.047-0.047,0.445-0.445,0.539-0.492c0.117-0.211,0.609-0.938,0.633-0.984
			c0-0.023,0-0.609,0-0.633c0-0.211,0.281-1.945,0.281-2.156l0.094-0.164c0-1.008-0.727-1.5-1.172-2.273
			c-0.047-0.047-0.164-0.398-0.164-0.492c-0.047-0.164-0.281-1.5-0.375-1.617c-0.234-0.727-0.914-1.383-1.242-2.133
			c-0.047-0.047-0.164-0.586-0.211-0.609c-0.211-0.868-0.68-1.43-1.102-2.11c-0.117-0.164-0.469-0.891-0.516-1.031
			c0-0.07-0.094-0.562-0.164-0.609c-0.047-0.117-0.609-0.914-0.656-1.008c-0.562-0.891-0.445-1.219-0.797-2.109
			c-0.422-1.102-1.055-1.664-1.805-2.625c-0.023-0.047-0.281-0.609-0.305-0.656c-0.586-0.773-1.828-1.055-1.828-2.109
			c0-0.516,0-0.891,0.328-1.289c0.188,0,0.914,0,1.078,0c0.727,0,1.336,0.164,2.086,0.164c1.242,0,2.508-0.164,3.727-0.164
			c0.891,0,2.133,0.328,2.133,1.383c0,0.633-0.141,0.727-0.398,0.727c-0.117,0-0.234,0-0.398,0c-0.117,0-0.258,0-0.375,0.023
			c-0.773,0.211-0.844,2.086-0.844,2.531c0,0.352,0.047,0.281,0.211,0.727c0.07,0.281,0.445,1.219,0.445,1.289
			c0.023,0.117,0.516,1.148,0.633,1.5c0.094,0.047,0.164,0.281,0.164,0.281c0.117,0.117,0.938,1.031,1.008,1.148
			c0.211,0.328,0.867,2.062,0.984,2.461c0.234,0.281,0.492,0.445,0.891,0.445c0.68,0,1.336-0.281,1.898-0.633
			c0.047-0.258,0.492-1.641,0.656-1.945c0-0.094,0.398-0.867,0.445-0.938c0.047-0.117,0.328-0.938,0.375-1.008
			c0.07-0.211,0.445-0.586,0.445-0.914c0-0.281-0.164-0.516-0.164-0.797c0-0.844,0.352-1.664,0.352-2.508
			c0-1.148-0.609-0.586-1.289-1.031c-0.094,0-0.68-0.445-0.82-0.609c-0.305-0.305-0.68-0.562-0.68-1.008
			c0-0.773,1.336-0.938,1.781-0.961c0.375,0,3.398-0.164,3.773-0.164c0.07,0,0.68-0.117,0.82-0.117c0.023,0,0.609-0.094,0.797-0.094
			c0.211,0,0.727,0.094,0.82,0.094c0.188,0,0.352,0,0.562,0c0.445,0,0.844,0.023,1.266,0.281c0.023,0.023,0.117,0.164,0.117,0.164
			v1.172c0,0-0.094,0.07-0.117,0.117c-0.211,0.164-1.031,0.727-1.195,0.82c0,0-0.234,0.141-0.305,0.141
			c-0.609,0.258-1.055,0.375-1.477,0.82c-0.398,0.445-1.289,1.453-1.289,1.453c-0.094,0.164-0.281,1.5-0.328,1.641
			c-0.047,0.117-0.281,0.586-0.352,0.68c0,0.07-0.141,0.727-0.141,0.82c-0.188,0.516-0.609,0.914-0.797,1.453
			c-0.492,1.172-0.984,2.273-1.336,3.445c0,0.07-0.164,0.563-0.164,0.657c-0.047,0.141-0.281,1.734-0.281,1.945
			c-0.211,0.891-0.75,1.852-1.031,2.742c-0.164,0.562-0.234,1.312-0.445,1.781c-0.07,0.141-0.469,0.727-0.516,0.82
			c-0.375,0.656-0.492,1.383-0.656,2.156v0.281c-0.047,0.117-0.445,0.938-0.445,1.008c-0.07,0.047-0.328,0.844-0.352,0.984
			c-0.047,0.023-0.445,0.398-0.539,0.445c0,0.141-0.07,1.055-0.117,1.172c-0.117,0.609-0.281,1.453-0.703,1.969
			c-1.289,1.523-2.953,3.375-5.133,3.375c-1.148,0-1.945-0.492-2.648-1.289c-0.164-0.211-0.609-0.773-0.633-0.82
			c0,0,0-0.211,0-0.234C50.551,108.298,50.996,107.524,52.566,107.524z"/>
	</g>
</g>
</svg>
